{"title":"There Will Be Blood 2007 DVDRip x264 xLeAr","uid":15414315,"size":1244664089,"categoryP":"video","categoryS":"movies","magnet":"?xt=urn:btih:75ab69f8a98986bdd912699ce27c7c2d899d5584&amp;dn=There+Will+Be+Blood+2007+DVDRip+x264+xLeAr&amp;tr=udp%3A%2F%2Ftracker.leechers-paradise.org%3A6969&amp;tr=udp%3A%2F%2Fzer0day.ch%3A1337&amp;tr=udp%3A%2F%2Fopen.demonii.com%3A1337&amp;tr=udp%3A%2F%2Ftracker.coppersurfer.tk%3A6969&amp;tr=udp%3A%2F%2Fexodus.desync.com%3A6969","seeders":7,"leechers":4,"uploader":"xLeAr","files":4,"time":1469579826,"description":"A story of family, religion, hatred, oil and madness, focusing on a turn-of-the-century prospector in the early days of the business.\r\n\r\n\r\n\r\nGeneral \r\nFormat : MPEG-4 \r\nFormat profile : Base Media / Version 2 \r\nCodec ID : mp42 (isom/iso2/avc1/mp41) \r\nFile size : 1.16 GiB \r\nDuration : 2 h 31 min \r\nOverall bit rate mode : Variable \r\nOverall bit rate : 1 093 kb/s \r\nEncoded date : UTC 2016-07-26 21:51:57 \r\nTagged date : UTC 2016-07-26 21:51:57 \r\nWriting application : HandBrake 0.10.5 2016021100 \r\n\r\n\r\n\r\nVideo \r\nID : 1 \r\nFormat : AVC \r\nFormat/Info : Advanced Video Codec \r\nFormat profile :    \r\nFormat settings, CABAC : Yes \r\nFormat settings, ReFrames : 4 frames \r\nCodec ID : avc1 \r\nCodec ID/Info : Advanced Video Coding \r\nDuration : 2 h 31 min \r\nBit rate : 975 kb/s \r\nWidth : 712 pixels \r\nHeight : 426 pixels \r\nDisplay aspect ratio : 2.40:1 \r\nFrame rate mode : Constant \r\nFrame rate : 25.000 FPS \r\nColor space : YUV \r\nChroma subsampling : 4:2:0 \r\nBit depth : 8 bits \r\nScan type : Progressive \r\nBits/(Pixel*Frame) : 0.129 \r\nStream size : 1.03 GiB (89%) \r\nWriting library : x264 core 142 r2479 dd79a61 \r\nEncoding settings : cabac=1 / ref=2 / deblock=1:0:0 / analyse=0x1:0x111 / me=hex / subme=4 / psy=1 / psy_rd=1.00:0.00 / mixed_ref=0 / me_range=16 / chroma_me=1 / trellis=1 / 8x8dct=0 / cqm=0 / deadzone=21,11 / fast_pskip=1 / chroma_qp_offset=0 / threads=12 / lookahead_threads=3 / sliced_threads=0 / nr=0 / decimate=1 / interlaced=0 / bluray_compat=0 / constrained_intra=0 / bframes=3 / b_pyramid=2 / b_adapt=1 / b_bias=0 / direct=1 / weightb=1 / open_gop=0 / weightp=1 / keyint=250 / keyint_min=25 / scenecut=40 / intra_refresh=0 / rc_lookahead=20 / rc=2pass / mbtree=1 / bitrate=975 / ratetol=1.0 / qcomp=0.60 / qpmin=0 / qpmax=69 / qpstep=4 / cplxblur=20.0 / qblur=0.5 / vbv_maxrate=20000 / vbv_bufsize=20000 / nal_hrd=none / filler=0 / ip_ratio=1.40 / aq=1:1.00 \r\nEncoded date : UTC 2016-07-26 21:51:57 \r\nTagged date : UTC 2016-07-26 21:51:57 \r\nColor range : Limited \r\nColor primaries : BT.601 PAL \r\nTransfer characteristics : BT.709 \r\nMatrix coefficients : BT.601 \r\nMenus : 3 \r\n\r\n\r\n\r\nAudio \r\nID : 2 \r\nFormat : AAC \r\nFormat/Info : Advanced Audio Codec \r\nFormat profile : LC \r\nCodec ID : 40 \r\nDuration : 2 h 31 min \r\nBit rate mode : Variable \r\nBit rate : 112 kb/s \r\nChannel(s) : 2 channels \r\nChannel positions : Front: L R \r\nSampling rate : 48.0 kHz \r\nFrame rate : 46.875 FPS (1024 spf) \r\nCompression mode : Lossy \r\nStream size : 122 MiB (10%) \r\nTitle : Stereo / Stereo \r\nLanguage : English \r\nDefault : Yes \r\nAlternate group : 1 \r\nEncoded date : UTC 2016-07-26 21:51:57 \r\nTagged date : UTC 2016-07-26 21:51:57 \r\nMenus : 3","torrent":{"xt":"urn:btih:75ab69f8a98986bdd912699ce27c7c2d899d5584","amp;dn":"There+Will+Be+Blood+2007+DVDRip+x264+xLeAr","amp;tr":["udp%3A%2F%2Ftracker.leechers-paradise.org%3A6969","udp%3A%2F%2Fzer0day.ch%3A1337","udp%3A%2F%2Fopen.demonii.com%3A1337","udp%3A%2F%2Ftracker.coppersurfer.tk%3A6969","udp%3A%2F%2Fexodus.desync.com%3A6969"],"infoHash":"75ab69f8a98986bdd912699ce27c7c2d899d5584","infoHashBuffer":{"type":"Buffer","data":[117,171,105,248,169,137,134,189,217,18,105,156,226,124,124,45,137,157,85,132]},"announce":[],"urlList":[]}}